<?xml version="1.0" standalone="no"?>
<!DOCTYPE svg PUBLIC "-//W3C//DTD SVG 20010904//EN"
 "http://www.w3.org/TR/2001/REC-SVG-20010904/DTD/svg10.dtd">
<svg version="1.0" xmlns="http://www.w3.org/2000/svg"
 width="225.000000pt" height="225.000000pt" viewBox="0 0 225.000000 225.000000"
 preserveAspectRatio="xMidYMid meet">

<g transform="translate(0.000000,225.000000) scale(0.100000,-0.100000)"
fill="#ff5e00" stroke="none">
<path d="M1353 2118 c-73 -73 -133 -138 -133 -145 0 -8 -10 -18 -22 -22 -13
-5 -287 -274 -610 -598 -449 -449 -588 -594 -588 -612 0 -17 30 -55 104 -129
l103 -105 42 16 c57 23 107 21 167 -7 104 -48 149 -162 107 -267 l-16 -42 105
-103 c74 -74 112 -104 129 -104 18 0 163 139 612 587 324 324 593 598 598 611
4 12 14 22 22 22 7 0 72 60 145 133 93 95 132 140 132 157 0 16 -32 55 -104
128 l-103 105 -33 -12 c-93 -32 -200 1 -254 77 -35 49 -46 136 -26 197 l13 38
-105 104 c-73 71 -112 103 -128 103 -17 0 -62 -39 -157 -132z m-45 -214 c2
-11 -4 -26 -12 -33 -31 -26 -71 14 -45 45 17 21 53 14 57 -12z m87 -93 c0 -34
-30 -51 -51 -29 -25 24 -10 60 24 56 21 -2 27 -8 27 -27z m90 -91 c0 -20 -6
-26 -28 -28 -29 -4 -44 16 -33 44 4 10 15 14 33 12 22 -2 28 -8 28 -28z m80
-66 c18 -18 16 -33 -7 -47 -35 -22 -66 21 -36 51 16 16 23 15 43 -4z m-103
-222 c159 -158 188 -192 188 -217 0 -25 -53 -82 -382 -412 -359 -359 -385
-383 -418 -383 -32 0 -50 15 -220 185 -170 171 -184 187 -184 220 0 34 21 57
380 416 352 352 382 379 414 379 31 0 51 -17 222 -188z m193 132 c18 -18 16
-33 -7 -47 -35 -22 -66 21 -36 51 16 16 23 15 43 -4z m83 -83 c20 -12 11 -55
-12 -59 -27 -6 -48 25 -35 49 10 20 26 24 47 10z m99 -97 c8 -20 -8 -48 -30
-52 -22 -5 -42 35 -26 54 16 19 48 18 56 -2z m91 -100 c2 -11 -4 -26 -12 -33
-31 -26 -71 14 -45 45 17 21 53 14 57 -12z"/>
</g>
</svg>
